<svg width="45" height="45" viewBox="0 0 45 45" fill="none" xmlns="http://www.w3.org/2000/svg">
<path d="M30 16.875L22.5 28.125" stroke="#FF3263" stroke-width="5" stroke-linecap="round" stroke-linejoin="round"/>
<path d="M22.5 28.0875V28.275" stroke="#FF3263" stroke-width="5" stroke-linecap="round" stroke-linejoin="round"/>
<path d="M39.375 25.375C39.3712 27.8943 38.8034 30.3807 37.7132 32.6519C36.623 34.923 35.0382 36.9213 33.075 38.5H11.925C9.70137 36.7119 7.96748 34.3891 6.88542 31.7488C5.80337 29.1085 5.40849 26.237 5.73769 23.4026C6.0669 20.5683 7.10944 17.8637 8.76786 15.5417C10.4263 13.2197 12.6464 11.3562 15.2207 10.1253C17.7949 8.89446 20.6393 8.33646 23.4878 8.50349C26.3363 8.67051 29.096 9.55712 31.5087 11.0804C33.9215 12.6037 35.9086 14.7139 37.2843 17.2138C38.66 19.7137 39.3793 22.5216 39.375 25.375Z" stroke="#0D3D7B" stroke-width="5" stroke-linecap="round" stroke-linejoin="round"/>
</svg>
