<svg width="125" height="55" viewBox="0 0 125 55" fill="none" xmlns="http://www.w3.org/2000/svg">
<mask id="path-1-outside-1_2002_5222" maskUnits="userSpaceOnUse" x="34.0735" y="11" width="88" height="31" fill="black">
<rect fill="white" x="34.0735" y="11" width="88" height="31"/>
<path d="M54.9823 30.653C54.9823 31.369 54.9346 32.0135 54.8391 32.5863H40.339C40.4583 34.0184 40.9596 35.1403 41.8427 35.9518C42.7258 36.7633 43.8119 37.1691 45.1008 37.1691C46.9625 37.1691 48.2872 36.3695 49.0749 34.7703H54.4811C53.9082 36.6798 52.8103 38.2551 51.1872 39.4963C49.5642 40.7136 47.5711 41.3222 45.2082 41.3222C43.2987 41.3222 41.5801 40.9045 40.0526 40.0691C38.5488 39.2099 37.3673 38.0045 36.5081 36.453C35.6727 34.9016 35.255 33.1114 35.255 31.0826C35.255 29.0299 35.6727 27.2278 36.5081 25.6764C37.3435 24.1249 38.513 22.9315 40.0168 22.0961C41.5205 21.2607 43.2509 20.843 45.2082 20.843C47.0938 20.843 48.7765 21.2488 50.2564 22.0603C51.7601 22.8718 52.9177 24.0295 53.7292 25.5332C54.5646 27.013 54.9823 28.7196 54.9823 30.653ZM49.7909 29.2209C49.7671 27.932 49.3016 26.9056 48.3946 26.1418C47.4876 25.3542 46.3777 24.9603 45.065 24.9603C43.8238 24.9603 42.7736 25.3422 41.9143 26.106C41.0789 26.846 40.5657 27.8842 40.3748 29.2209H49.7909ZM49.0391 15.938L40.8044 19.6973V16.117L49.0391 11.8565V15.938ZM66.2311 41.3222C64.6081 41.3222 63.1521 41.0358 61.8632 40.463C60.5743 39.8662 59.5479 39.0666 58.7841 38.0642C58.0442 37.0617 57.6385 35.9518 57.5668 34.7345H62.615C62.7105 35.4983 63.0805 36.1308 63.7249 36.6321C64.3933 37.1333 65.2167 37.3839 66.1953 37.3839C67.1501 37.3839 67.89 37.193 68.4151 36.8111C68.9641 36.4292 69.2386 35.9399 69.2386 35.3432C69.2386 34.6987 68.9044 34.2213 68.2361 33.911C67.5916 33.5769 66.5534 33.2189 65.1212 32.837C63.6414 32.4789 62.4241 32.109 61.4694 31.7271C60.5385 31.3452 59.727 30.7604 59.0348 29.9727C58.3664 29.1851 58.0323 28.1229 58.0323 26.7863C58.0323 25.6883 58.3426 24.6858 58.9632 23.7788C59.6076 22.8718 60.5146 22.1558 61.6842 21.6307C62.8776 21.1056 64.2739 20.843 65.8731 20.843C68.2361 20.843 70.1217 21.4397 71.5299 22.6332C72.9382 23.8027 73.7139 25.39 73.8571 27.3949H69.0596C68.9879 26.6073 68.6538 25.9867 68.0571 25.5332C67.4842 25.0558 66.7085 24.8171 65.7299 24.8171C64.8229 24.8171 64.1188 24.9842 63.6175 25.3184C63.1402 25.6525 62.9015 26.118 62.9015 26.7147C62.9015 27.383 63.2356 27.8962 63.9039 28.2542C64.5723 28.5884 65.6105 28.9344 67.0188 29.2925C68.4509 29.6505 69.6324 30.0205 70.5633 30.4024C71.4941 30.7843 72.2937 31.381 72.9621 32.1925C73.6542 32.9802 74.0123 34.0304 74.0361 35.3432C74.0361 36.4888 73.7139 37.5152 73.0695 38.4222C72.4489 39.3292 71.5419 40.0453 70.3485 40.5704C69.1789 41.0716 67.8065 41.3222 66.2311 41.3222ZM83.9865 25.2826V34.8777C83.9865 35.546 84.1417 36.0353 84.452 36.3456C84.7861 36.6321 85.3351 36.7753 86.0989 36.7753H88.4261V41H85.2754C81.0507 41 78.9383 38.9473 78.9383 34.8419V25.2826H76.5753V21.1652H78.9383V16.2603H83.9865V21.1652H88.4261V25.2826H83.9865ZM94.5733 18.8023C93.6901 18.8023 92.9502 18.5278 92.3535 17.9788C91.7806 17.4059 91.4942 16.7018 91.4942 15.8664C91.4942 15.031 91.7806 14.3388 92.3535 13.7899C92.9502 13.217 93.6901 12.9306 94.5733 12.9306C95.4564 12.9306 96.1844 13.217 96.7572 13.7899C97.3539 14.3388 97.6523 15.031 97.6523 15.8664C97.6523 16.7018 97.3539 17.4059 96.7572 17.9788C96.1844 18.5278 95.4564 18.8023 94.5733 18.8023ZM97.0436 21.1652V41H92.0313V21.1652H97.0436ZM100.707 31.011C100.707 29.0061 101.101 27.2278 101.888 25.6764C102.7 24.1249 103.786 22.9315 105.147 22.0961C106.531 21.2607 108.07 20.843 109.765 20.843C111.245 20.843 112.534 21.1414 113.632 21.7381C114.754 22.3348 115.649 23.0867 116.317 23.9937V21.1652H121.365V41H116.317V38.1C115.673 39.0308 114.778 39.8066 113.632 40.4272C112.51 41.0239 111.209 41.3222 109.729 41.3222C108.059 41.3222 106.531 40.8926 105.147 40.0333C103.786 39.1741 102.7 37.9687 101.888 36.4172C101.101 34.8419 100.707 33.0398 100.707 31.011ZM116.317 31.0826C116.317 29.8653 116.078 28.827 115.601 27.9678C115.124 27.0846 114.479 26.4163 113.668 25.9628C112.856 25.4854 111.985 25.2468 111.054 25.2468C110.123 25.2468 109.264 25.4735 108.476 25.927C107.689 26.3805 107.044 27.0488 106.543 27.932C106.065 28.7912 105.827 29.8176 105.827 31.011C105.827 32.2044 106.065 33.2547 106.543 34.1617C107.044 35.0448 107.689 35.7251 108.476 36.2024C109.288 36.6798 110.147 36.9185 111.054 36.9185C111.985 36.9185 112.856 36.6917 113.668 36.2382C114.479 35.7609 115.124 35.0925 115.601 34.2333C116.078 33.3501 116.317 32.2999 116.317 31.0826Z"/>
</mask>
<path d="M54.9823 30.653C54.9823 31.369 54.9346 32.0135 54.8391 32.5863H40.339C40.4583 34.0184 40.9596 35.1403 41.8427 35.9518C42.7258 36.7633 43.8119 37.1691 45.1008 37.1691C46.9625 37.1691 48.2872 36.3695 49.0749 34.7703H54.4811C53.9082 36.6798 52.8103 38.2551 51.1872 39.4963C49.5642 40.7136 47.5711 41.3222 45.2082 41.3222C43.2987 41.3222 41.5801 40.9045 40.0526 40.0691C38.5488 39.2099 37.3673 38.0045 36.5081 36.453C35.6727 34.9016 35.255 33.1114 35.255 31.0826C35.255 29.0299 35.6727 27.2278 36.5081 25.6764C37.3435 24.1249 38.513 22.9315 40.0168 22.0961C41.5205 21.2607 43.2509 20.843 45.2082 20.843C47.0938 20.843 48.7765 21.2488 50.2564 22.0603C51.7601 22.8718 52.9177 24.0295 53.7292 25.5332C54.5646 27.013 54.9823 28.7196 54.9823 30.653ZM49.7909 29.2209C49.7671 27.932 49.3016 26.9056 48.3946 26.1418C47.4876 25.3542 46.3777 24.9603 45.065 24.9603C43.8238 24.9603 42.7736 25.3422 41.9143 26.106C41.0789 26.846 40.5657 27.8842 40.3748 29.2209H49.7909ZM49.0391 15.938L40.8044 19.6973V16.117L49.0391 11.8565V15.938ZM66.2311 41.3222C64.6081 41.3222 63.1521 41.0358 61.8632 40.463C60.5743 39.8662 59.5479 39.0666 58.7841 38.0642C58.0442 37.0617 57.6385 35.9518 57.5668 34.7345H62.615C62.7105 35.4983 63.0805 36.1308 63.7249 36.6321C64.3933 37.1333 65.2167 37.3839 66.1953 37.3839C67.1501 37.3839 67.89 37.193 68.4151 36.8111C68.9641 36.4292 69.2386 35.9399 69.2386 35.3432C69.2386 34.6987 68.9044 34.2213 68.2361 33.911C67.5916 33.5769 66.5534 33.2189 65.1212 32.837C63.6414 32.4789 62.4241 32.109 61.4694 31.7271C60.5385 31.3452 59.727 30.7604 59.0348 29.9727C58.3664 29.1851 58.0323 28.1229 58.0323 26.7863C58.0323 25.6883 58.3426 24.6858 58.9632 23.7788C59.6076 22.8718 60.5146 22.1558 61.6842 21.6307C62.8776 21.1056 64.2739 20.843 65.8731 20.843C68.2361 20.843 70.1217 21.4397 71.5299 22.6332C72.9382 23.8027 73.7139 25.39 73.8571 27.3949H69.0596C68.9879 26.6073 68.6538 25.9867 68.0571 25.5332C67.4842 25.0558 66.7085 24.8171 65.7299 24.8171C64.8229 24.8171 64.1188 24.9842 63.6175 25.3184C63.1402 25.6525 62.9015 26.118 62.9015 26.7147C62.9015 27.383 63.2356 27.8962 63.9039 28.2542C64.5723 28.5884 65.6105 28.9344 67.0188 29.2925C68.4509 29.6505 69.6324 30.0205 70.5633 30.4024C71.4941 30.7843 72.2937 31.381 72.9621 32.1925C73.6542 32.9802 74.0123 34.0304 74.0361 35.3432C74.0361 36.4888 73.7139 37.5152 73.0695 38.4222C72.4489 39.3292 71.5419 40.0453 70.3485 40.5704C69.1789 41.0716 67.8065 41.3222 66.2311 41.3222ZM83.9865 25.2826V34.8777C83.9865 35.546 84.1417 36.0353 84.452 36.3456C84.7861 36.6321 85.3351 36.7753 86.0989 36.7753H88.4261V41H85.2754C81.0507 41 78.9383 38.9473 78.9383 34.8419V25.2826H76.5753V21.1652H78.9383V16.2603H83.9865V21.1652H88.4261V25.2826H83.9865ZM94.5733 18.8023C93.6901 18.8023 92.9502 18.5278 92.3535 17.9788C91.7806 17.4059 91.4942 16.7018 91.4942 15.8664C91.4942 15.031 91.7806 14.3388 92.3535 13.7899C92.9502 13.217 93.6901 12.9306 94.5733 12.9306C95.4564 12.9306 96.1844 13.217 96.7572 13.7899C97.3539 14.3388 97.6523 15.031 97.6523 15.8664C97.6523 16.7018 97.3539 17.4059 96.7572 17.9788C96.1844 18.5278 95.4564 18.8023 94.5733 18.8023ZM97.0436 21.1652V41H92.0313V21.1652H97.0436ZM100.707 31.011C100.707 29.0061 101.101 27.2278 101.888 25.6764C102.7 24.1249 103.786 22.9315 105.147 22.0961C106.531 21.2607 108.07 20.843 109.765 20.843C111.245 20.843 112.534 21.1414 113.632 21.7381C114.754 22.3348 115.649 23.0867 116.317 23.9937V21.1652H121.365V41H116.317V38.1C115.673 39.0308 114.778 39.8066 113.632 40.4272C112.51 41.0239 111.209 41.3222 109.729 41.3222C108.059 41.3222 106.531 40.8926 105.147 40.0333C103.786 39.1741 102.7 37.9687 101.888 36.4172C101.101 34.8419 100.707 33.0398 100.707 31.011ZM116.317 31.0826C116.317 29.8653 116.078 28.827 115.601 27.9678C115.124 27.0846 114.479 26.4163 113.668 25.9628C112.856 25.4854 111.985 25.2468 111.054 25.2468C110.123 25.2468 109.264 25.4735 108.476 25.927C107.689 26.3805 107.044 27.0488 106.543 27.932C106.065 28.7912 105.827 29.8176 105.827 31.011C105.827 32.2044 106.065 33.2547 106.543 34.1617C107.044 35.0448 107.689 35.7251 108.476 36.2024C109.288 36.6798 110.147 36.9185 111.054 36.9185C111.985 36.9185 112.856 36.6917 113.668 36.2382C114.479 35.7609 115.124 35.0925 115.601 34.2333C116.078 33.3501 116.317 32.2999 116.317 31.0826Z" fill="#FDFDFD"/>
<path d="M54.8391 32.5863V32.9593H55.1551L55.207 32.6476L54.8391 32.5863ZM40.339 32.5863V32.2134H39.9337L39.9673 32.6173L40.339 32.5863ZM41.8427 35.9518L41.5904 36.2264L41.8427 35.9518ZM49.0749 34.7703V34.3974H48.8428L48.7403 34.6055L49.0749 34.7703ZM54.4811 34.7703L54.8383 34.8775L54.9823 34.3974H54.4811V34.7703ZM51.1872 39.4963L51.411 39.7947L51.4138 39.7925L51.1872 39.4963ZM40.0526 40.0691L39.8675 40.393L39.8736 40.3963L40.0526 40.0691ZM36.5081 36.453L36.1797 36.6299L36.1818 36.6337L36.5081 36.453ZM36.5081 25.6764L36.1797 25.4996L36.5081 25.6764ZM40.0168 22.0961L40.1979 22.4221L40.0168 22.0961ZM50.2564 22.0603L50.077 22.3873L50.0792 22.3885L50.2564 22.0603ZM53.7292 25.5332L53.401 25.7103L53.4045 25.7165L53.7292 25.5332ZM49.7909 29.2209V29.5938H50.1708L50.1638 29.214L49.7909 29.2209ZM48.3946 26.1418L48.1501 26.4234L48.1544 26.4271L48.3946 26.1418ZM41.9143 26.106L42.1616 26.3852L42.1621 26.3848L41.9143 26.106ZM40.3748 29.2209L40.0056 29.1681L39.9448 29.5938H40.3748V29.2209ZM49.0391 15.938L49.1939 16.2773L49.412 16.1777V15.938H49.0391ZM40.8044 19.6973H40.4315V20.2776L40.9593 20.0366L40.8044 19.6973ZM40.8044 16.117L40.633 15.7858L40.4315 15.8901V16.117H40.8044ZM49.0391 11.8565H49.412V11.2436L48.8677 11.5253L49.0391 11.8565ZM54.6094 30.653C54.6094 31.353 54.5627 31.9765 54.4713 32.525L55.207 32.6476C55.3065 32.0505 55.3553 31.385 55.3553 30.653H54.6094ZM54.8391 32.2134H40.339V32.9593H54.8391V32.2134ZM39.9673 32.6173C40.0928 34.1232 40.6251 35.3394 41.5904 36.2264L42.095 35.6772C41.2941 34.9412 40.8238 33.9137 40.7106 32.5554L39.9673 32.6173ZM41.5904 36.2264C42.5477 37.1062 43.726 37.542 45.1008 37.542V36.7962C43.8977 36.7962 42.9039 36.4205 42.095 35.6772L41.5904 36.2264ZM45.1008 37.542C46.0857 37.542 46.952 37.3301 47.6833 36.8887C48.4156 36.4467 48.989 35.7887 49.4094 34.9351L48.7403 34.6055C48.3731 35.3511 47.8903 35.8925 47.2979 36.2501C46.7045 36.6083 45.9776 36.7962 45.1008 36.7962V37.542ZM49.0749 35.1433H54.4811V34.3974H49.0749V35.1433ZM54.1239 34.6631C53.5742 36.4954 52.523 38.0053 50.9607 39.2L51.4138 39.7925C53.0976 38.5049 54.2423 36.8642 54.8383 34.8775L54.1239 34.6631ZM50.9635 39.1979C49.4152 40.3591 47.5043 40.9493 45.2082 40.9493V41.6952C47.638 41.6952 49.7132 41.068 51.411 39.7946L50.9635 39.1979ZM45.2082 40.9493C43.355 40.9493 41.699 40.5445 40.2315 39.7419L39.8736 40.3963C41.4613 41.2646 43.2423 41.6952 45.2082 41.6952V40.9493ZM40.2376 39.7453C38.7946 38.9208 37.6613 37.7656 36.8343 36.2724L36.1818 36.6337C37.0733 38.2434 38.303 39.4989 39.8675 40.3929L40.2376 39.7453ZM36.8364 36.2762C36.0345 34.7868 35.6279 33.0591 35.6279 31.0826H34.882C34.882 33.1637 35.3109 35.0163 36.1797 36.6299L36.8364 36.2762ZM35.6279 31.0826C35.6279 29.0814 36.0348 27.342 36.8364 25.8532L36.1797 25.4996C35.3106 27.1137 34.882 28.9784 34.882 31.0826H35.6279ZM36.8364 25.8532C37.6389 24.3629 38.7581 23.222 40.1979 22.4221L39.8356 21.7701C38.268 22.641 37.048 23.887 36.1797 25.4996L36.8364 25.8532ZM40.1979 22.4221C41.6389 21.6215 43.3055 21.216 45.2082 21.216V20.4701C43.1964 20.4701 41.402 20.8999 39.8356 21.7701L40.1979 22.4221ZM45.2082 21.216C47.0386 21.216 48.6584 21.6093 50.077 22.3873L50.4357 21.7333C48.8947 20.8882 47.149 20.4701 45.2082 20.4701V21.216ZM50.0792 22.3885C51.5189 23.1655 52.6241 24.2706 53.401 25.7103L54.0574 25.3561C53.2114 23.7883 52.0012 22.5782 50.4335 21.7321L50.0792 22.3885ZM53.4045 25.7165C54.2041 27.1331 54.6094 28.7749 54.6094 30.653H55.3553C55.3553 28.6644 54.9251 26.893 54.054 25.3498L53.4045 25.7165ZM50.1638 29.214C50.1381 27.8281 49.6319 26.6962 48.6348 25.8566L48.1544 26.4271C48.9713 27.1151 49.396 28.0359 49.418 29.2278L50.1638 29.214ZM48.6391 25.8602C47.6578 25.008 46.4586 24.5874 45.065 24.5874V25.3333C46.2969 25.3333 47.3174 25.7003 48.1501 26.4234L48.6391 25.8602ZM45.065 24.5874C43.7403 24.5874 42.5997 24.9978 41.6665 25.8273L42.1621 26.3848C42.9474 25.6867 43.9072 25.3333 45.065 25.3333V24.5874ZM41.667 25.8268C40.7523 26.6371 40.2063 27.7631 40.0056 29.1681L40.744 29.2736C40.9252 28.0054 41.4056 27.0548 42.1616 26.3852L41.667 25.8268ZM40.3748 29.5938H49.7909V28.8479H40.3748V29.5938ZM48.8842 15.5988L40.6495 19.3581L40.9593 20.0366L49.1939 16.2773L48.8842 15.5988ZM41.1774 19.6973V16.117H40.4315V19.6973H41.1774ZM40.9758 16.4483L49.2104 12.1877L48.8677 11.5253L40.633 15.7858L40.9758 16.4483ZM48.6661 11.8565V15.938H49.412V11.8565H48.6661ZM61.8632 40.463L61.7065 40.8014L61.7117 40.8038L61.8632 40.463ZM58.7841 38.0642L58.484 38.2857L58.4875 38.2902L58.7841 38.0642ZM57.5668 34.7345V34.3616H57.1713L57.1945 34.7564L57.5668 34.7345ZM62.615 34.7345L62.9851 34.6882L62.9443 34.3616H62.615V34.7345ZM63.7249 36.6321L63.4959 36.9265L63.5012 36.9304L63.7249 36.6321ZM68.4151 36.8111L68.2021 36.5048L68.1957 36.5095L68.4151 36.8111ZM68.2361 33.911L68.0644 34.2421L68.0716 34.2459L68.079 34.2493L68.2361 33.911ZM65.1212 32.837L65.2174 32.4765L65.2089 32.4745L65.1212 32.837ZM61.4694 31.7271L61.3278 32.0721L61.3308 32.0733L61.4694 31.7271ZM59.0348 29.9727L58.7503 30.2141L58.7546 30.2189L59.0348 29.9727ZM58.9632 23.7788L58.6591 23.5628L58.6554 23.5682L58.9632 23.7788ZM61.6842 21.6307L61.534 21.2893L61.5314 21.2904L61.6842 21.6307ZM71.5299 22.6332L71.2888 22.9177L71.2917 22.9201L71.5299 22.6332ZM73.8571 27.3949V27.7679H74.2577L74.2291 27.3684L73.8571 27.3949ZM69.0596 27.3949L68.6881 27.4287L68.719 27.7679H69.0596V27.3949ZM68.0571 25.5332L67.8183 25.8197L67.8247 25.825L67.8314 25.8301L68.0571 25.5332ZM63.6175 25.3184L63.4106 25.008L63.4037 25.0128L63.6175 25.3184ZM63.9039 28.2542L63.7278 28.5831L63.7372 28.5878L63.9039 28.2542ZM67.0188 29.2925L66.9269 29.6539L66.9283 29.6543L67.0188 29.2925ZM72.9621 32.1925L72.674 32.4297L72.6819 32.4387L72.9621 32.1925ZM74.0361 35.3432H74.4092L74.409 35.3364L74.0361 35.3432ZM73.0695 38.4222L72.7654 38.2062L72.7617 38.2116L73.0695 38.4222ZM70.3485 40.5704L70.4954 40.9132L70.4987 40.9117L70.3485 40.5704ZM66.2311 40.9493C64.6524 40.9493 63.2492 40.6708 62.0147 40.1222L61.7117 40.8038C63.055 41.4008 64.5637 41.6952 66.2311 41.6952V40.9493ZM62.0199 40.1245C60.779 39.55 59.8033 38.7865 59.0808 37.8381L58.4875 38.2902C59.2926 39.3468 60.3696 40.1824 61.7065 40.8014L62.0199 40.1245ZM59.0842 37.8427C58.3862 36.897 58.0064 35.8561 57.9391 34.7126L57.1945 34.7564C57.2705 36.0475 57.7022 37.2264 58.4841 38.2856L59.0842 37.8427ZM57.5668 35.1075H62.615V34.3616H57.5668V35.1075ZM62.245 34.7808C62.3535 35.6491 62.7787 36.3686 63.496 36.9264L63.9539 36.3377C63.3823 35.8931 63.0675 35.3475 62.9851 34.6882L62.245 34.7808ZM63.5012 36.9304C64.2446 37.488 65.1504 37.7569 66.1953 37.7569V37.011C65.2831 37.011 64.5419 36.7786 63.9487 36.3337L63.5012 36.9304ZM66.1953 37.7569C67.1935 37.7569 68.022 37.5581 68.6345 37.1127L68.1957 36.5095C67.758 36.8278 67.1066 37.011 66.1953 37.011V37.7569ZM68.6281 37.1172C69.2632 36.6754 69.6115 36.0782 69.6115 35.3432H68.8656C68.8656 35.8016 68.665 36.1829 68.2021 36.5049L68.6281 37.1172ZM69.6115 35.3432C69.6115 34.9529 69.5091 34.5959 69.2935 34.2879C69.08 33.9829 68.7714 33.7484 68.3931 33.5728L68.079 34.2493C68.3691 34.384 68.5617 34.5433 68.6824 34.7157C68.801 34.8851 68.8656 35.089 68.8656 35.3432H69.6115ZM68.4078 33.58C67.7255 33.2262 66.6545 32.8598 65.2173 32.4766L65.0251 33.1973C66.4523 33.5779 67.4578 33.9276 68.0644 34.2421L68.4078 33.58ZM65.2089 32.4745C63.739 32.1188 62.5403 31.7538 61.6079 31.3808L61.3308 32.0733C62.3079 32.4642 63.5438 32.839 65.0335 33.1994L65.2089 32.4745ZM61.6109 31.382C60.7355 31.0229 59.9708 30.4729 59.3149 29.7265L58.7546 30.2189C59.4831 31.0479 60.3415 31.6675 61.3278 32.0721L61.6109 31.382ZM59.3191 29.7314C58.7231 29.0289 58.4052 28.061 58.4052 26.7863H57.6593C57.6593 28.1848 58.0098 29.3412 58.7504 30.214L59.3191 29.7314ZM58.4052 26.7863C58.4052 25.7636 58.6928 24.8345 59.271 23.9894L58.6554 23.5682C57.9924 24.5372 57.6593 25.6131 57.6593 26.7863H58.4052ZM59.2672 23.9949C59.8676 23.1498 60.7186 22.473 61.8369 21.9709L61.5314 21.2904C60.3106 21.8386 59.3476 22.5939 58.6591 23.5628L59.2672 23.9949ZM61.8344 21.972C62.971 21.4719 64.3142 21.216 65.8731 21.216V20.4701C64.2336 20.4701 62.7842 20.7392 61.534 21.2893L61.8344 21.972ZM65.8731 21.216C68.1731 21.216 69.965 21.7958 71.2888 22.9177L71.7711 22.3486C70.2784 21.0836 68.2991 20.4701 65.8731 20.4701V21.216ZM71.2917 22.9201C72.6136 24.018 73.3484 25.5069 73.4851 27.4215L74.2291 27.3684C74.0795 25.273 73.2627 23.5875 71.7682 22.3463L71.2917 22.9201ZM73.8571 27.022H69.0596V27.7679H73.8571V27.022ZM69.431 27.3612C69.3505 26.4757 68.9679 25.757 68.2827 25.2363L67.8314 25.8301C68.3397 26.2164 68.6254 26.7388 68.6881 27.4287L69.431 27.3612ZM68.2958 25.2467C67.6375 24.698 66.7682 24.4442 65.7299 24.4442V25.1901C66.6488 25.1901 67.331 25.4136 67.8183 25.8197L68.2958 25.2467ZM65.7299 24.4442C64.7841 24.4442 63.9969 24.6173 63.4107 25.0081L63.8244 25.6287C64.2407 25.3512 64.8616 25.1901 65.7299 25.1901V24.4442ZM63.4037 25.0128C62.8238 25.4188 62.5285 25.9998 62.5285 26.7147H63.2744C63.2744 26.2362 63.4565 25.8863 63.8314 25.6239L63.4037 25.0128ZM62.5285 26.7147C62.5285 27.1142 62.6295 27.4817 62.8396 27.8043C63.0481 28.1245 63.3514 28.3813 63.7278 28.5829L64.0801 27.9255C63.7882 27.7691 63.5902 27.5902 63.4646 27.3973C63.3406 27.2068 63.2744 26.9835 63.2744 26.7147H62.5285ZM63.7372 28.5878C64.4424 28.9404 65.5122 29.2943 66.9269 29.6539L67.1107 28.931C65.7089 28.5746 64.7022 28.2363 64.0707 27.9206L63.7372 28.5878ZM66.9283 29.6543C68.3503 30.0098 69.5132 30.3747 70.4217 30.7474L70.7048 30.0573C69.7516 29.6663 68.5515 29.2912 67.1092 28.9307L66.9283 29.6543ZM70.4217 30.7474C71.2931 31.1049 72.0432 31.6634 72.6742 32.4296L73.2499 31.9554C72.5443 31.0986 71.6952 30.4636 70.7048 30.0573L70.4217 30.7474ZM72.6819 32.4387C73.3023 33.1446 73.6406 34.1025 73.6633 35.3499L74.409 35.3364C74.384 33.9583 74.0062 32.8157 73.2422 31.9463L72.6819 32.4387ZM73.6632 35.3432C73.6632 36.4139 73.3637 37.3643 72.7654 38.2062L73.3735 38.6382C74.0642 37.6661 74.4091 36.5638 74.4091 35.3432H73.6632ZM72.7617 38.2116C72.1872 39.0512 71.34 39.7266 70.1983 40.229L70.4987 40.9117C71.7438 40.3639 72.7106 39.6072 73.3773 38.6328L72.7617 38.2116ZM70.2015 40.2276C69.0881 40.7048 67.7676 40.9493 66.2311 40.9493V41.6952C67.8453 41.6952 69.2697 41.4384 70.4954 40.9132L70.2015 40.2276ZM83.9865 25.2826V24.9096H83.6136V25.2826H83.9865ZM84.452 36.3456L84.1883 36.6093L84.1984 36.6195L84.2093 36.6288L84.452 36.3456ZM88.4261 36.7753H88.799V36.4023H88.4261V36.7753ZM88.4261 41V41.3729H88.799V41H88.4261ZM78.9383 25.2826H79.3113V24.9096H78.9383V25.2826ZM76.5753 25.2826H76.2024V25.6555H76.5753V25.2826ZM76.5753 21.1652V20.7923H76.2024V21.1652H76.5753ZM78.9383 21.1652V21.5382H79.3113V21.1652H78.9383ZM78.9383 16.2603V15.8873H78.5654V16.2603H78.9383ZM83.9865 16.2603H84.3595V15.8873H83.9865V16.2603ZM83.9865 21.1652H83.6136V21.5382H83.9865V21.1652ZM88.4261 21.1652H88.799V20.7923H88.4261V21.1652ZM88.4261 25.2826V25.6555H88.799V25.2826H88.4261ZM83.6136 25.2826V34.8777H84.3595V25.2826H83.6136ZM83.6136 34.8777C83.6136 35.5941 83.7788 36.1999 84.1883 36.6093L84.7157 36.0819C84.5045 35.8708 84.3595 35.4979 84.3595 34.8777H83.6136ZM84.2093 36.6288C84.6455 37.0027 85.3056 37.1482 86.0989 37.1482V36.4023C85.3646 36.4023 84.9267 36.2614 84.6947 36.0625L84.2093 36.6288ZM86.0989 37.1482H88.4261V36.4023H86.0989V37.1482ZM88.0531 36.7753V41H88.799V36.7753H88.0531ZM88.4261 40.6271H85.2754V41.3729H88.4261V40.6271ZM85.2754 40.6271C83.2179 40.6271 81.7438 40.1271 80.7825 39.193C79.8232 38.2608 79.3113 36.8344 79.3113 34.8419H78.5654C78.5654 36.9549 79.1096 38.6074 80.2627 39.7279C81.4138 40.8465 83.1082 41.3729 85.2754 41.3729V40.6271ZM79.3113 34.8419V25.2826H78.5654V34.8419H79.3113ZM78.9383 24.9096H76.5753V25.6555H78.9383V24.9096ZM76.9483 25.2826V21.1652H76.2024V25.2826H76.9483ZM76.5753 21.5382H78.9383V20.7923H76.5753V21.5382ZM79.3113 21.1652V16.2603H78.5654V21.1652H79.3113ZM78.9383 16.6332H83.9865V15.8873H78.9383V16.6332ZM83.6136 16.2603V21.1652H84.3595V16.2603H83.6136ZM83.9865 21.5382H88.4261V20.7923H83.9865V21.5382ZM88.0531 21.1652V25.2826H88.799V21.1652H88.0531ZM88.4261 24.9096H83.9865V25.6555H88.4261V24.9096ZM92.3535 17.9788L92.0898 18.2425L92.0953 18.248L92.101 18.2533L92.3535 17.9788ZM92.3535 13.7899L92.6115 14.0591L92.6118 14.0589L92.3535 13.7899ZM96.7572 13.7899L96.4935 14.0536L96.499 14.0591L96.5047 14.0643L96.7572 13.7899ZM96.7572 17.9788L97.0153 18.2481L97.0155 18.2478L96.7572 17.9788ZM97.0436 21.1652H97.4166V20.7923H97.0436V21.1652ZM97.0436 41V41.3729H97.4166V41H97.0436ZM92.0313 41H91.6583V41.3729H92.0313V41ZM92.0313 21.1652V20.7923H91.6583V21.1652H92.0313ZM94.5733 18.4293C93.7746 18.4293 93.1275 18.1841 92.606 17.7043L92.101 18.2533C92.7729 18.8714 93.6057 19.1752 94.5733 19.1752V18.4293ZM92.6172 17.7151C92.1167 17.2146 91.8672 16.6064 91.8672 15.8664H91.1213C91.1213 16.7973 91.4446 17.5973 92.0898 18.2425L92.6172 17.7151ZM91.8672 15.8664C91.8672 15.1267 92.1163 14.5337 92.6115 14.0591L92.0954 13.5206C91.445 14.144 91.1213 14.9354 91.1213 15.8664H91.8672ZM92.6118 14.0589C93.134 13.5575 93.7792 13.3035 94.5733 13.3035V12.5576C93.601 12.5576 92.7664 12.8765 92.0952 13.5208L92.6118 14.0589ZM94.5733 13.3035C95.3673 13.3035 95.9973 13.5573 96.4935 14.0536L97.0209 13.5261C96.3715 12.8767 95.5455 12.5576 94.5733 12.5576V13.3035ZM96.5047 14.0643C97.0221 14.5403 97.2794 15.1317 97.2794 15.8664H98.0252C98.0252 14.9303 97.6858 14.1374 97.0097 13.5154L96.5047 14.0643ZM97.2794 15.8664C97.2794 16.6014 97.0216 17.208 96.499 17.7097L97.0155 18.2478C97.6863 17.6039 98.0252 16.8022 98.0252 15.8664H97.2794ZM96.4992 17.7095C96.0039 18.1842 95.3721 18.4293 94.5733 18.4293V19.1752C95.5407 19.1752 96.3649 18.8713 97.0153 18.2481L96.4992 17.7095ZM96.6707 21.1652V41H97.4166V21.1652H96.6707ZM97.0436 40.6271H92.0313V41.3729H97.0436V40.6271ZM92.4042 41V21.1652H91.6583V41H92.4042ZM92.0313 21.5382H97.0436V20.7923H92.0313V21.5382ZM101.888 25.6764L101.558 25.5035L101.556 25.5076L101.888 25.6764ZM105.147 22.0961L104.954 21.7768L104.951 21.7783L105.147 22.0961ZM113.632 21.7381L113.454 22.0658L113.457 22.0673L113.632 21.7381ZM116.317 23.9937L116.017 24.2149L116.69 25.1285V23.9937H116.317ZM116.317 21.1652V20.7923H115.944V21.1652H116.317ZM121.365 21.1652H121.738V20.7923H121.365V21.1652ZM121.365 41V41.3729H121.738V41H121.365ZM116.317 41H115.944V41.3729H116.317V41ZM116.317 38.1H116.69V36.9061L116.01 37.8877L116.317 38.1ZM113.632 40.4272L113.807 40.7564L113.809 40.7551L113.632 40.4272ZM105.147 40.0333L104.947 40.3487L104.95 40.3502L105.147 40.0333ZM101.888 36.4172L101.555 36.5841L101.558 36.5901L101.888 36.4172ZM115.601 27.9678L115.273 28.1451L115.275 28.1489L115.601 27.9678ZM113.668 25.9628L113.478 26.2843L113.486 26.2884L113.668 25.9628ZM108.476 25.927L108.29 25.6038L108.476 25.927ZM106.543 27.932L106.219 27.7479L106.217 27.7509L106.543 27.932ZM106.543 34.1617L106.213 34.3354L106.219 34.3457L106.543 34.1617ZM108.476 36.2024L108.283 36.5214L108.287 36.5239L108.476 36.2024ZM113.668 36.2382L113.85 36.5639L113.857 36.5597L113.668 36.2382ZM115.601 34.2333L115.927 34.4144L115.929 34.4106L115.601 34.2333ZM101.08 31.011C101.08 29.0558 101.464 27.3369 102.221 25.8452L101.556 25.5076C100.738 27.1188 100.334 28.9563 100.334 31.011H101.08ZM102.219 25.8493C103.002 24.3515 104.044 23.2108 105.342 22.4139L104.951 21.7783C103.528 22.6523 102.398 23.8984 101.558 25.5035L102.219 25.8493ZM105.339 22.4154C106.663 21.6168 108.135 21.216 109.765 21.216V20.4701C108.006 20.4701 106.399 20.9046 104.954 21.7768L105.339 22.4154ZM109.765 21.216C111.194 21.216 112.42 21.5038 113.454 22.0658L113.81 21.4104C112.648 20.779 111.296 20.4701 109.765 20.4701V21.216ZM113.457 22.0673C114.536 22.6412 115.386 23.3582 116.017 24.2149L116.617 23.7724C115.912 22.8151 114.972 22.0284 113.807 21.4088L113.457 22.0673ZM116.69 23.9937V21.1652H115.944V23.9937H116.69ZM116.317 21.5382H121.365V20.7923H116.317V21.5382ZM120.992 21.1652V41H121.738V21.1652H120.992ZM121.365 40.6271H116.317V41.3729H121.365V40.6271ZM116.69 41V38.1H115.944V41H116.69ZM116.01 37.8877C115.404 38.7636 114.556 39.5023 113.454 40.0992L113.809 40.7551C114.999 40.1108 115.941 39.2981 116.624 38.3123L116.01 37.8877ZM113.457 40.0979C112.397 40.6615 111.158 40.9493 109.729 40.9493V41.6952C111.26 41.6952 112.623 41.3862 113.807 40.7564L113.457 40.0979ZM109.729 40.9493C108.126 40.9493 106.667 40.5381 105.343 39.7165L104.95 40.3502C106.395 41.2471 107.991 41.6952 109.729 41.6952V40.9493ZM105.346 39.718C104.046 38.8969 103.003 37.7429 102.219 36.2444L101.558 36.5901C102.397 38.1945 103.527 39.4512 104.947 40.3486L105.346 39.718ZM102.222 36.2505C101.464 34.7343 101.08 32.9908 101.08 31.011H100.334C100.334 33.0889 100.738 34.9496 101.555 36.584L102.222 36.2505ZM116.69 31.0826C116.69 29.8169 116.442 28.7131 115.927 27.7867L115.275 28.1489C115.715 28.941 115.944 29.9138 115.944 31.0826H116.69ZM115.929 27.7904C115.421 26.8502 114.728 26.1281 113.85 25.6373L113.486 26.2884C114.23 26.7046 114.826 27.3191 115.273 28.1451L115.929 27.7904ZM113.857 25.6414C112.989 25.1307 112.052 24.8738 111.054 24.8738V25.6197C111.918 25.6197 112.724 25.8402 113.479 26.2843L113.857 25.6414ZM111.054 24.8738C110.059 24.8738 109.136 25.1169 108.29 25.6038L108.662 26.2502C109.392 25.8301 110.187 25.6197 111.054 25.6197V24.8738ZM108.29 25.6038C107.438 26.0943 106.749 26.8138 106.219 27.7479L106.867 28.1161C107.34 27.2838 107.939 26.6667 108.662 26.2502L108.29 25.6038ZM106.217 27.7509C105.703 28.6762 105.454 29.7677 105.454 31.011H106.2C106.2 29.8675 106.428 28.9062 106.869 28.1131L106.217 27.7509ZM105.454 31.011C105.454 32.255 105.703 33.3666 106.213 34.3354L106.873 33.988C106.428 33.1427 106.2 32.1539 106.2 31.011H105.454ZM106.219 34.3457C106.748 35.2785 107.435 36.0077 108.283 36.5214L108.67 35.8835C107.942 35.4424 107.34 34.8111 106.867 33.9776L106.219 34.3457ZM108.287 36.5239C109.154 37.0336 110.078 37.2914 111.054 37.2914V36.5455C110.216 36.5455 109.422 36.326 108.665 35.881L108.287 36.5239ZM111.054 37.2914C112.049 37.2914 112.982 37.0484 113.85 36.5638L113.486 35.9127C112.73 36.3351 111.921 36.5455 111.054 36.5455V37.2914ZM113.857 36.5597C114.728 36.0471 115.419 35.3291 115.927 34.4144L115.275 34.0521C114.828 34.8559 114.23 35.4746 113.479 35.9168L113.857 36.5597ZM115.929 34.4106C116.442 33.4626 116.69 32.3488 116.69 31.0826H115.944C115.944 32.2511 115.715 33.2377 115.273 34.0559L115.929 34.4106Z" fill="#FDFDFD" mask="url(#path-1-outside-1_2002_5222)"/>
<path d="M9.52777 40.5323V21.5388H3.30531L2 17.5961C6.1026 19.6778 6.71655 19.3146 9.52777 18.3376C6.05705 5.71083 7.14061 1.9866 9.52777 2.54526C11.9149 3.10391 13.2285 2.54526 13.2285 2.54526C11.4294 8.29808 11.8964 11.8634 13.2285 18.3376H24.3309C26.3451 11.9445 26.4195 8.47762 24.3309 2.54526C24.3309 2.54526 25.3444 3.10387 28.0316 2.54526C30.7189 1.98664 30.3291 11.944 28.0316 18.3376C29.1191 19.8509 30.5304 19.4609 31.4627 19.4609L35.9381 17.5961L34.4463 21.5388H28.0316V40.5323H24.3309V21.5388H13.2285V40.5323H9.52777Z" fill="#FDFDFD" stroke="#FDFDFD" stroke-width="1.49178"/>
</svg>
