<svg width="17" height="17" viewBox="0 0 17 17" fill="none" xmlns="http://www.w3.org/2000/svg">
<g clip-path="url(#clip0_4108_5482)">
<path d="M8.37012 5.80767L10.8037 8.24121L10.8152 8.11374C10.8152 6.83515 9.77617 5.79608 8.49759 5.79608L8.37012 5.80767Z" fill="#195198"/>
<path d="M8.49849 4.25101C10.6307 4.25101 12.3613 5.98154 12.3613 8.11378C12.3613 8.61208 12.2608 9.08719 12.087 9.52367L14.3467 11.7834C15.5133 10.81 16.4326 9.55073 17.0005 8.11378C15.6601 4.72229 12.3651 2.31964 8.49853 2.31964C7.41694 2.31964 6.38175 2.51277 5.41992 2.86042L7.08863 4.52525C7.52508 4.3553 8.0002 4.25101 8.49849 4.25101Z" fill="#195198"/>
<path d="M0.77254 2.14577L2.53396 3.90719L2.88548 4.25871C1.61077 5.2553 0.60259 6.58024 0 8.11373C1.33653 11.5052 4.63531 13.9079 8.49808 13.9079C9.69555 13.9079 10.8389 13.6761 11.8857 13.2551L12.2141 13.5834L14.4661 15.8392L15.4511 14.8581L1.75754 1.16077L0.77254 2.14577ZM5.04477 6.41413L6.23837 7.60772C6.2036 7.77383 6.18043 7.93991 6.18043 8.11373C6.18043 9.39232 7.2195 10.4314 8.49808 10.4314C8.6719 10.4314 8.83801 10.4082 9.00025 10.3734L10.1938 11.567C9.68008 11.822 9.10842 11.9765 8.49808 11.9765C6.36584 11.9765 4.63531 10.246 4.63531 8.11373C4.63531 7.50343 4.78983 6.93173 5.04477 6.41413Z" fill="#195198"/>
</g>
<defs>
<clipPath id="clip0_4108_5482">
<rect width="17" height="17" fill="white"/>
</clipPath>
</defs>
</svg>
