<svg width="203" height="89" viewBox="0 0 203 89" fill="none" xmlns="http://www.w3.org/2000/svg">
<mask id="path-1-outside-1_3597_5301" maskUnits="userSpaceOnUse" x="56.3994" y="15.9999" width="143" height="51" fill="black">
<rect fill="white" x="56.3994" y="15.9999" width="143" height="51"/>
<path d="M89.5589 48.0956C89.5589 49.2655 89.4809 50.3183 89.3249 51.2542H65.6356C65.8305 53.5939 66.6494 55.4266 68.0922 56.7525C69.535 58.0783 71.3093 58.7412 73.415 58.7412C76.4566 58.7412 78.6208 57.4349 79.9077 54.8222H88.74C87.8041 57.9418 86.0103 60.5155 83.3587 62.5432C80.7071 64.5319 77.451 65.5263 73.5905 65.5263C70.4709 65.5263 67.6633 64.8439 65.1676 63.4791C62.7109 62.0753 60.7807 60.106 59.3769 57.5714C58.0121 55.0367 57.3297 52.1121 57.3297 48.7975C57.3297 45.444 58.0121 42.4999 59.3769 39.9652C60.7417 37.4305 62.6525 35.4808 65.1091 34.116C67.5658 32.7512 70.3929 32.0688 73.5905 32.0688C76.6711 32.0688 79.4202 32.7317 81.8379 34.0575C84.2946 35.3833 86.1858 37.2746 87.5116 39.7312C88.8765 42.1489 89.5589 44.937 89.5589 48.0956ZM81.0775 45.7559C81.0385 43.6502 80.2781 41.9734 78.7963 40.7256C77.3145 39.4388 75.5012 38.7954 73.3565 38.7954C71.3288 38.7954 69.613 39.4193 68.2092 40.6671C66.8444 41.876 66.006 43.5722 65.694 45.7559H81.0775ZM79.8492 24.0553L66.396 30.197V24.3478L79.8492 17.3872V24.0553ZM107.936 65.5263C105.285 65.5263 102.906 65.0584 100.8 64.1225C98.6946 63.1476 97.0179 61.8413 95.77 60.2035C94.5612 58.5657 93.8983 56.7525 93.7813 54.7637H102.029C102.185 56.0116 102.789 57.0449 103.842 57.8638C104.934 58.6827 106.279 59.0922 107.878 59.0922C109.438 59.0922 110.647 58.7802 111.504 58.1563C112.401 57.5324 112.85 56.733 112.85 55.7581C112.85 54.7052 112.304 53.9253 111.212 53.4184C110.159 52.8725 108.463 52.2876 106.123 51.6636C103.705 51.0787 101.717 50.4743 100.157 49.8504C98.6361 49.2265 97.3103 48.2711 96.1795 46.9843C95.0876 45.6974 94.5417 43.9622 94.5417 41.7785C94.5417 39.9847 95.0486 38.3469 96.0625 36.8651C97.1153 35.3833 98.5971 34.2135 100.508 33.3556C102.458 32.4977 104.739 32.0688 107.351 32.0688C111.212 32.0688 114.293 33.0436 116.593 34.9934C118.894 36.9041 120.161 39.4973 120.395 42.7728H112.557C112.44 41.486 111.894 40.4721 110.92 39.7312C109.984 38.9513 108.716 38.5614 107.118 38.5614C105.636 38.5614 104.485 38.8344 103.666 39.3803C102.887 39.9262 102.497 40.6866 102.497 41.6615C102.497 42.7533 103.043 43.5917 104.134 44.1766C105.226 44.7226 106.923 45.288 109.223 45.8729C111.563 46.4578 113.493 47.0623 115.014 47.6862C116.535 48.3101 117.841 49.285 118.933 50.6108C120.064 51.8976 120.649 53.6134 120.688 55.7581C120.688 57.6299 120.161 59.3066 119.108 60.7884C118.095 62.2702 116.613 63.4401 114.663 64.298C112.752 65.1169 110.51 65.5263 107.936 65.5263ZM136.944 39.3218V54.9977C136.944 56.0896 137.197 56.889 137.704 57.3959C138.25 57.8638 139.147 58.0978 140.395 58.0978H144.197V64.9999H139.05C132.148 64.9999 128.697 61.6463 128.697 54.9392V39.3218H124.836V32.5952H128.697V24.5817H136.944V32.5952H144.197V39.3218H136.944ZM154.24 28.7347C152.797 28.7347 151.588 28.2863 150.613 27.3894C149.677 26.4535 149.21 25.3032 149.21 23.9383C149.21 22.5735 149.677 21.4427 150.613 20.5458C151.588 19.6099 152.797 19.142 154.24 19.142C155.683 19.142 156.872 19.6099 157.808 20.5458C158.783 21.4427 159.27 22.5735 159.27 23.9383C159.27 25.3032 158.783 26.4535 157.808 27.3894C156.872 28.2863 155.683 28.7347 154.24 28.7347ZM158.276 32.5952V64.9999H150.087V32.5952H158.276ZM164.261 48.6805C164.261 45.405 164.904 42.4999 166.191 39.9652C167.517 37.4305 169.291 35.4808 171.514 34.116C173.775 32.7512 176.291 32.0688 179.059 32.0688C181.477 32.0688 183.583 32.5562 185.376 33.5311C187.209 34.5059 188.672 35.7343 189.763 37.2161V32.5952H198.011V64.9999H189.763V60.262C188.711 61.7828 187.248 63.0501 185.376 64.064C183.544 65.0389 181.418 65.5263 179.001 65.5263C176.271 65.5263 173.775 64.8244 171.514 63.4206C169.291 62.0168 167.517 60.0475 166.191 57.5129C164.904 54.9392 164.261 51.9951 164.261 48.6805ZM189.763 48.7975C189.763 46.8088 189.373 45.1125 188.594 43.7087C187.814 42.2659 186.761 41.174 185.435 40.4331C184.109 39.6532 182.686 39.2633 181.165 39.2633C179.644 39.2633 178.24 39.6337 176.954 40.3746C175.667 41.1156 174.614 42.2074 173.795 43.6502C173.015 45.054 172.625 46.7308 172.625 48.6805C172.625 50.6303 173.015 52.3461 173.795 53.8279C174.614 55.2707 175.667 56.382 176.954 57.1619C178.279 57.9418 179.683 58.3318 181.165 58.3318C182.686 58.3318 184.109 57.9613 185.435 57.2204C186.761 56.4405 187.814 55.3487 188.594 53.9448C189.373 52.502 189.763 50.7863 189.763 48.7975Z"/>
</mask>
<path d="M89.5589 48.0956C89.5589 49.2655 89.4809 50.3183 89.3249 51.2542H65.6356C65.8305 53.5939 66.6494 55.4266 68.0922 56.7525C69.535 58.0783 71.3093 58.7412 73.415 58.7412C76.4566 58.7412 78.6208 57.4349 79.9077 54.8222H88.74C87.8041 57.9418 86.0103 60.5155 83.3587 62.5432C80.7071 64.5319 77.451 65.5263 73.5905 65.5263C70.4709 65.5263 67.6633 64.8439 65.1676 63.4791C62.7109 62.0753 60.7807 60.106 59.3769 57.5714C58.0121 55.0367 57.3297 52.1121 57.3297 48.7975C57.3297 45.444 58.0121 42.4999 59.3769 39.9652C60.7417 37.4305 62.6525 35.4808 65.1091 34.116C67.5658 32.7512 70.3929 32.0688 73.5905 32.0688C76.6711 32.0688 79.4202 32.7317 81.8379 34.0575C84.2946 35.3833 86.1858 37.2746 87.5116 39.7312C88.8765 42.1489 89.5589 44.937 89.5589 48.0956ZM81.0775 45.7559C81.0385 43.6502 80.2781 41.9734 78.7963 40.7256C77.3145 39.4388 75.5012 38.7954 73.3565 38.7954C71.3288 38.7954 69.613 39.4193 68.2092 40.6671C66.8444 41.876 66.006 43.5722 65.694 45.7559H81.0775ZM79.8492 24.0553L66.396 30.197V24.3478L79.8492 17.3872V24.0553ZM107.936 65.5263C105.285 65.5263 102.906 65.0584 100.8 64.1225C98.6946 63.1476 97.0179 61.8413 95.77 60.2035C94.5612 58.5657 93.8983 56.7525 93.7813 54.7637H102.029C102.185 56.0116 102.789 57.0449 103.842 57.8638C104.934 58.6827 106.279 59.0922 107.878 59.0922C109.438 59.0922 110.647 58.7802 111.504 58.1563C112.401 57.5324 112.85 56.733 112.85 55.7581C112.85 54.7052 112.304 53.9253 111.212 53.4184C110.159 52.8725 108.463 52.2876 106.123 51.6636C103.705 51.0787 101.717 50.4743 100.157 49.8504C98.6361 49.2265 97.3103 48.2711 96.1795 46.9843C95.0876 45.6974 94.5417 43.9622 94.5417 41.7785C94.5417 39.9847 95.0486 38.3469 96.0625 36.8651C97.1153 35.3833 98.5971 34.2135 100.508 33.3556C102.458 32.4977 104.739 32.0688 107.351 32.0688C111.212 32.0688 114.293 33.0436 116.593 34.9934C118.894 36.9041 120.161 39.4973 120.395 42.7728H112.557C112.44 41.486 111.894 40.4721 110.92 39.7312C109.984 38.9513 108.716 38.5614 107.118 38.5614C105.636 38.5614 104.485 38.8344 103.666 39.3803C102.887 39.9262 102.497 40.6866 102.497 41.6615C102.497 42.7533 103.043 43.5917 104.134 44.1766C105.226 44.7226 106.923 45.288 109.223 45.8729C111.563 46.4578 113.493 47.0623 115.014 47.6862C116.535 48.3101 117.841 49.285 118.933 50.6108C120.064 51.8976 120.649 53.6134 120.688 55.7581C120.688 57.6299 120.161 59.3066 119.108 60.7884C118.095 62.2702 116.613 63.4401 114.663 64.298C112.752 65.1169 110.51 65.5263 107.936 65.5263ZM136.944 39.3218V54.9977C136.944 56.0896 137.197 56.889 137.704 57.3959C138.25 57.8638 139.147 58.0978 140.395 58.0978H144.197V64.9999H139.05C132.148 64.9999 128.697 61.6463 128.697 54.9392V39.3218H124.836V32.5952H128.697V24.5817H136.944V32.5952H144.197V39.3218H136.944ZM154.24 28.7347C152.797 28.7347 151.588 28.2863 150.613 27.3894C149.677 26.4535 149.21 25.3032 149.21 23.9383C149.21 22.5735 149.677 21.4427 150.613 20.5458C151.588 19.6099 152.797 19.142 154.24 19.142C155.683 19.142 156.872 19.6099 157.808 20.5458C158.783 21.4427 159.27 22.5735 159.27 23.9383C159.27 25.3032 158.783 26.4535 157.808 27.3894C156.872 28.2863 155.683 28.7347 154.24 28.7347ZM158.276 32.5952V64.9999H150.087V32.5952H158.276ZM164.261 48.6805C164.261 45.405 164.904 42.4999 166.191 39.9652C167.517 37.4305 169.291 35.4808 171.514 34.116C173.775 32.7512 176.291 32.0688 179.059 32.0688C181.477 32.0688 183.583 32.5562 185.376 33.5311C187.209 34.5059 188.672 35.7343 189.763 37.2161V32.5952H198.011V64.9999H189.763V60.262C188.711 61.7828 187.248 63.0501 185.376 64.064C183.544 65.0389 181.418 65.5263 179.001 65.5263C176.271 65.5263 173.775 64.8244 171.514 63.4206C169.291 62.0168 167.517 60.0475 166.191 57.5129C164.904 54.9392 164.261 51.9951 164.261 48.6805ZM189.763 48.7975C189.763 46.8088 189.373 45.1125 188.594 43.7087C187.814 42.2659 186.761 41.174 185.435 40.4331C184.109 39.6532 182.686 39.2633 181.165 39.2633C179.644 39.2633 178.24 39.6337 176.954 40.3746C175.667 41.1156 174.614 42.2074 173.795 43.6502C173.015 45.054 172.625 46.7308 172.625 48.6805C172.625 50.6303 173.015 52.3461 173.795 53.8279C174.614 55.2707 175.667 56.382 176.954 57.1619C178.279 57.9418 179.683 58.3318 181.165 58.3318C182.686 58.3318 184.109 57.9613 185.435 57.2204C186.761 56.4405 187.814 55.3487 188.594 53.9448C189.373 52.502 189.763 50.7863 189.763 48.7975Z" fill="#FF3263"/>
<path d="M89.3249 51.2542V51.8635H89.8411L89.9259 51.3544L89.3249 51.2542ZM65.6356 51.2542V50.6449H64.9734L65.0284 51.3048L65.6356 51.2542ZM68.0922 56.7525L67.68 57.2011L68.0922 56.7525ZM79.9077 54.8222V54.2129H79.5286L79.3611 54.553L79.9077 54.8222ZM88.74 54.8222L89.3236 54.9973L89.5589 54.2129H88.74V54.8222ZM83.3587 62.5432L83.7243 63.0307L83.7288 63.0272L83.3587 62.5432ZM65.1676 63.4791L64.8653 64.0082L64.8753 64.0137L65.1676 63.4791ZM59.3769 57.5714L58.8404 57.8603L58.8439 57.8666L59.3769 57.5714ZM59.3769 39.9652L58.8404 39.6763L59.3769 39.9652ZM65.1091 34.116L65.405 34.6486L65.1091 34.116ZM81.8379 34.0575L81.5449 34.5917L81.5485 34.5937L81.8379 34.0575ZM87.5116 39.7312L86.9754 40.0207L86.9811 40.0308L87.5116 39.7312ZM81.0775 45.7559V46.3652H81.6982L81.6867 45.7447L81.0775 45.7559ZM78.7963 40.7256L78.3968 41.1857L78.4038 41.1917L78.7963 40.7256ZM68.2092 40.6671L68.6132 41.1232L68.614 41.1225L68.2092 40.6671ZM65.694 45.7559L65.0909 45.6698L64.9915 46.3652H65.694V45.7559ZM79.8492 24.0553L80.1022 24.6096L80.4585 24.4469V24.0553H79.8492ZM66.396 30.197H65.7867V31.1449L66.649 30.7513L66.396 30.197ZM66.396 24.3478L66.116 23.8066L65.7867 23.977V24.3478H66.396ZM79.8492 17.3872H80.4585V16.3859L79.5692 16.8461L79.8492 17.3872ZM88.9496 48.0956C88.9496 49.2393 88.8733 50.2578 88.7239 51.154L89.9259 51.3544C90.0885 50.3788 90.1682 49.2916 90.1682 48.0956H88.9496ZM89.3249 50.6449H65.6356V51.8635H89.3249V50.6449ZM65.0284 51.3048C65.2334 53.765 66.1029 55.752 67.68 57.2011L68.5045 56.3038C67.1959 55.1013 66.4277 53.4228 66.2427 51.2036L65.0284 51.3048ZM67.68 57.2011C69.244 58.6384 71.169 59.3505 73.415 59.3505V58.1319C71.4496 58.1319 69.826 57.5182 68.5045 56.3038L67.68 57.2011ZM73.415 59.3505C75.0242 59.3505 76.4394 59.0043 77.6342 58.2831C78.8306 57.561 79.7673 56.4861 80.4542 55.0914L79.3611 54.553C78.7611 55.771 77.9723 56.6556 77.0045 57.2398C76.0351 57.825 74.8475 58.1319 73.415 58.1319V59.3505ZM79.9077 55.4315H88.74V54.2129H79.9077V55.4315ZM88.1564 54.6472C87.2583 57.6406 85.541 60.1073 82.9886 62.0592L83.7288 63.0272C86.4796 60.9236 88.3499 58.243 89.3236 54.9973L88.1564 54.6472ZM82.9931 62.0558C80.4636 63.9529 77.3417 64.917 73.5905 64.917V66.1356C77.5603 66.1356 80.9505 65.111 83.7243 63.0306L82.9931 62.0558ZM73.5905 64.917C70.563 64.917 67.8575 64.2557 65.46 62.9445L64.8753 64.0137C67.4691 65.4321 70.3789 66.1356 73.5905 66.1356V64.917ZM65.4699 62.9501C63.1125 61.603 61.261 59.7157 59.9099 57.2762L58.8439 57.8666C60.3004 60.4964 62.3094 62.5476 64.8653 64.0081L65.4699 62.9501ZM59.9134 57.2825C58.6031 54.8492 57.939 52.0266 57.939 48.7975H56.7204C56.7204 52.1975 57.421 55.2242 58.8404 57.8602L59.9134 57.2825ZM57.939 48.7975C57.939 45.5281 58.6037 42.6863 59.9134 40.2541L58.8404 39.6763C57.4205 42.3134 56.7204 45.3598 56.7204 48.7975H57.939ZM59.9134 40.2541C61.2244 37.8193 63.0528 35.9554 65.405 34.6486L64.8132 33.5834C62.2521 35.0062 60.2591 37.0417 58.8404 39.6763L59.9134 40.2541ZM65.405 34.6486C67.7593 33.3407 70.482 32.678 73.5905 32.678V31.4595C70.3038 31.4595 67.3723 32.1617 64.8132 33.5834L65.405 34.6486ZM73.5905 32.678C76.5809 32.678 79.2272 33.3207 81.5449 34.5917L82.1309 33.5233C79.6133 32.1426 76.7613 31.4595 73.5905 31.4595V32.678ZM81.5485 34.5937C83.9006 35.8631 85.7061 37.6685 86.9755 40.0206L88.0478 39.4419C86.6656 36.8806 84.6885 34.9036 82.1273 33.5213L81.5485 34.5937ZM86.9811 40.0308C88.2875 42.3451 88.9496 45.0273 88.9496 48.0956H90.1682C90.1682 44.8468 89.4654 41.9528 88.0422 39.4317L86.9811 40.0308ZM81.6867 45.7447C81.6448 43.4804 80.8177 41.6313 79.1888 40.2595L78.4038 41.1917C79.7385 42.3156 80.4323 43.82 80.4683 45.7672L81.6867 45.7447ZM79.1958 40.2656C77.5926 38.8733 75.6334 38.1861 73.3565 38.1861V39.4047C75.3691 39.4047 77.0364 40.0043 78.3968 41.1856L79.1958 40.2656ZM73.3565 38.1861C71.1925 38.1861 69.329 38.8565 67.8044 40.2117L68.614 41.1225C69.897 39.982 71.4651 39.4047 73.3565 39.4047V38.1861ZM67.8052 40.211C66.3107 41.5347 65.4188 43.3743 65.0909 45.6698L66.2972 45.8421C66.5932 43.7701 67.3781 42.2172 68.6132 41.1232L67.8052 40.211ZM65.694 46.3652H81.0775V45.1466H65.694V46.3652ZM79.5961 23.501L66.1429 29.6427L66.649 30.7513L80.1022 24.6096L79.5961 23.501ZM67.0052 30.197V24.3478H65.7867V30.197H67.0052ZM66.6759 24.8889L80.1292 17.9284L79.5692 16.8461L66.116 23.8066L66.6759 24.8889ZM79.2399 17.3872V24.0553H80.4585V17.3872H79.2399ZM100.8 64.1225L100.544 64.6755L100.553 64.6793L100.8 64.1225ZM95.77 60.2035L95.2797 60.5654L95.2854 60.5728L95.77 60.2035ZM93.7813 54.7637V54.1544H93.1351L93.173 54.7995L93.7813 54.7637ZM102.029 54.7637L102.633 54.6882L102.567 54.1544H102.029V54.7637ZM103.842 57.8638L103.468 58.3448L103.476 58.3513L103.842 57.8638ZM111.504 58.1563L111.156 57.656L111.146 57.6635L111.504 58.1563ZM111.212 53.4184L110.931 53.9593L110.943 53.9654L110.955 53.9711L111.212 53.4184ZM106.123 51.6637L106.28 51.0749L106.273 51.0731L106.266 51.0714L106.123 51.6637ZM100.157 49.8504L99.9257 50.4141L99.9306 50.4161L100.157 49.8504ZM96.1795 46.9843L95.7148 47.3785L95.7218 47.3865L96.1795 46.9843ZM96.0625 36.8651L95.5657 36.5122L95.5596 36.5211L96.0625 36.8651ZM100.508 33.3556L100.262 32.7979L100.258 32.7997L100.508 33.3556ZM116.593 34.9934L116.199 35.4582L116.204 35.4621L116.593 34.9934ZM120.395 42.7728V43.3821H121.05L121.003 42.7294L120.395 42.7728ZM112.557 42.7728L111.95 42.828L112.001 43.3821H112.557V42.7728ZM110.92 39.7312L110.529 40.1993L110.54 40.2081L110.551 40.2163L110.92 39.7312ZM103.666 39.3803L103.328 38.8732L103.317 38.8811L103.666 39.3803ZM104.134 44.1766L103.847 44.7137L103.854 44.7178L103.862 44.7216L104.134 44.1766ZM109.223 45.8729L109.073 46.4634L109.075 46.464L109.223 45.8729ZM118.933 50.6108L118.463 50.9981L118.469 51.0057L118.475 51.013L118.933 50.6108ZM120.688 55.7581H121.297L121.297 55.747L120.688 55.7581ZM119.108 60.7884L118.612 60.4355L118.606 60.4444L119.108 60.7884ZM114.663 64.298L114.903 64.858L114.908 64.8557L114.663 64.298ZM107.936 64.917C105.357 64.917 103.065 64.4621 101.048 63.5657L100.553 64.6793C102.747 65.6546 105.212 66.1356 107.936 66.1356V64.917ZM101.056 63.5696C99.0291 62.631 97.4351 61.3836 96.2547 59.8343L95.2854 60.5728C96.6006 62.299 98.3602 63.6642 100.544 64.6754L101.056 63.5696ZM96.2602 59.8417C95.1199 58.2967 94.4994 56.5962 94.3895 54.728L93.173 54.7995C93.2971 56.9088 94.0025 58.8348 95.2798 60.5653L96.2602 59.8417ZM93.7813 55.373H102.029V54.1544H93.7813V55.373ZM101.424 54.8393C101.601 56.258 102.296 57.4334 103.468 58.3448L104.216 57.3829C103.282 56.6565 102.768 55.7652 102.633 54.6882L101.424 54.8393ZM103.476 58.3513C104.691 59.2622 106.171 59.7015 107.878 59.7015V58.4829C106.388 58.4829 105.177 58.1032 104.208 57.3764L103.476 58.3513ZM107.878 59.7015C109.509 59.7015 110.862 59.3768 111.863 58.649L111.146 57.6635C110.431 58.1836 109.367 58.4829 107.878 58.4829V59.7015ZM111.852 58.6565C112.89 57.9346 113.459 56.9589 113.459 55.7581H112.24C112.24 56.507 111.913 57.1301 111.156 57.6561L111.852 58.6565ZM113.459 55.7581C113.459 55.1205 113.292 54.5373 112.939 54.0341C112.591 53.5359 112.086 53.1527 111.469 52.8658L110.955 53.9711C111.429 54.1911 111.744 54.4513 111.941 54.7329C112.135 55.0097 112.24 55.3428 112.24 55.7581H113.459ZM111.492 52.8775C110.378 52.2995 108.628 51.701 106.28 51.0749L105.966 52.2524C108.298 52.8741 109.94 53.4454 110.931 53.9593L111.492 52.8775ZM106.266 51.0714C103.865 50.4904 101.907 49.894 100.383 49.2847L99.9306 50.4161C101.527 51.0546 103.546 51.667 105.98 52.2559L106.266 51.0714ZM100.388 49.2867C98.958 48.6999 97.7087 47.8014 96.6371 46.5821L95.7218 47.3865C96.912 48.7408 98.3143 49.753 99.9257 50.4141L100.388 49.2867ZM96.6441 46.5901C95.6702 45.4424 95.151 43.861 95.151 41.7785H93.9324C93.9324 44.0633 94.505 45.9525 95.7149 47.3785L96.6441 46.5901ZM95.151 41.7785C95.151 40.1076 95.6207 38.5897 96.5653 37.2092L95.5596 36.5211C94.4765 38.1041 93.9324 39.8618 93.9324 41.7785H95.151ZM96.5592 37.218C97.5401 35.8374 98.9304 34.7317 100.757 33.9114L100.258 32.7997C98.2639 33.6952 96.6905 34.9292 95.5658 36.5122L96.5592 37.218ZM100.753 33.9133C102.61 33.0962 104.805 32.678 107.351 32.678V31.4595C104.673 31.4595 102.305 31.8992 100.263 32.7979L100.753 33.9133ZM107.351 32.678C111.109 32.678 114.037 33.6254 116.199 35.4582L116.987 34.5285C114.549 32.4619 111.315 31.4595 107.351 31.4595V32.678ZM116.204 35.4621C118.364 37.2558 119.564 39.6883 119.787 42.8162L121.003 42.7294C120.758 39.3062 119.424 36.5525 116.983 34.5246L116.204 35.4621ZM120.395 42.1635H112.557V43.3821H120.395V42.1635ZM113.164 42.7177C113.033 41.2711 112.408 40.0968 111.288 39.2461L110.551 40.2163C111.381 40.8474 111.848 41.7009 111.95 42.828L113.164 42.7177ZM111.31 39.2632C110.234 38.3668 108.814 37.9521 107.118 37.9521V39.1707C108.619 39.1707 109.733 39.5359 110.529 40.1993L111.31 39.2632ZM107.118 37.9521C105.572 37.9521 104.286 38.2348 103.328 38.8733L104.004 39.8872C104.685 39.4339 105.699 39.1707 107.118 39.1707V37.9521ZM103.317 38.8811C102.37 39.5443 101.887 40.4935 101.887 41.6615H103.106C103.106 40.8797 103.403 40.3081 104.016 39.8794L103.317 38.8811ZM101.887 41.6615C101.887 42.3142 102.052 42.9145 102.395 43.4416C102.736 43.9648 103.232 44.3843 103.847 44.7137L104.422 43.6396C103.945 43.3841 103.622 43.0919 103.417 42.7767C103.214 42.4654 103.106 42.1006 103.106 41.6615H101.887ZM103.862 44.7216C105.014 45.2977 106.762 45.8758 109.073 46.4634L109.373 45.2824C107.083 44.7002 105.439 44.1475 104.407 43.6317L103.862 44.7216ZM109.075 46.464C111.399 47.0448 113.298 47.6409 114.783 48.2499L115.245 47.1225C113.688 46.4836 111.727 45.8709 109.371 45.2818L109.075 46.464ZM114.783 48.2499C116.206 48.8339 117.432 49.7463 118.463 50.9981L119.403 50.2235C118.25 48.8236 116.863 47.7863 115.245 47.1225L114.783 48.2499ZM118.475 51.013C119.489 52.1663 120.041 53.7312 120.079 55.7692L121.297 55.747C121.256 53.4956 120.639 51.6289 119.391 50.2086L118.475 51.013ZM120.078 55.7581C120.078 57.5074 119.589 59.06 118.612 60.4355L119.605 61.1413C120.734 59.5532 121.297 57.7523 121.297 55.7581H120.078ZM118.606 60.4444C117.667 61.8161 116.283 62.9195 114.418 63.7403L114.908 64.8557C116.943 63.9606 118.522 62.7244 119.611 61.1325L118.606 60.4444ZM114.423 63.7379C112.604 64.5176 110.447 64.917 107.936 64.917V66.1356C110.574 66.1356 112.901 65.7161 114.903 64.858L114.423 63.7379ZM136.944 39.3218V38.7125H136.335V39.3218H136.944ZM137.704 57.3959L137.274 57.8267L137.29 57.8433L137.308 57.8585L137.704 57.3959ZM144.197 58.0978H144.806V57.4885H144.197V58.0978ZM144.197 64.9999V65.6092H144.806V64.9999H144.197ZM128.697 39.3218H129.306V38.7125H128.697V39.3218ZM124.836 39.3218H124.227V39.9311H124.836V39.3218ZM124.836 32.5952V31.9859H124.227V32.5952H124.836ZM128.697 32.5952V33.2045H129.306V32.5952H128.697ZM128.697 24.5817V23.9725H128.087V24.5817H128.697ZM136.944 24.5817H137.553V23.9725H136.944V24.5817ZM136.944 32.5952H136.335V33.2045H136.944V32.5952ZM144.197 32.5952H144.806V31.9859H144.197V32.5952ZM144.197 39.3218V39.9311H144.806V39.3218H144.197ZM136.335 39.3218V54.9977H137.553V39.3218H136.335ZM136.335 54.9977C136.335 56.1681 136.605 57.1578 137.274 57.8267L138.135 56.9651C137.79 56.6201 137.553 56.011 137.553 54.9977H136.335ZM137.308 57.8585C138.021 58.4694 139.099 58.7071 140.395 58.7071V57.4885C139.195 57.4885 138.48 57.2583 138.101 56.9333L137.308 57.8585ZM140.395 58.7071H144.197V57.4885H140.395V58.7071ZM143.588 58.0978V64.9999H144.806V58.0978H143.588ZM144.197 64.3906H139.05V65.6092H144.197V64.3906ZM139.05 64.3906C135.688 64.3906 133.28 63.5738 131.709 62.0477C130.142 60.5248 129.306 58.1943 129.306 54.9392H128.087C128.087 58.3912 128.976 61.091 130.86 62.9217C132.741 64.7492 135.509 65.6092 139.05 65.6092V64.3906ZM129.306 54.9392V39.3218H128.087V54.9392H129.306ZM128.697 38.7125H124.836V39.9311H128.697V38.7125ZM125.445 39.3218V32.5952H124.227V39.3218H125.445ZM124.836 33.2045H128.697V31.9859H124.836V33.2045ZM129.306 32.5952V24.5817H128.087V32.5952H129.306ZM128.697 25.191H136.944V23.9725H128.697V25.191ZM136.335 24.5817V32.5952H137.553V24.5817H136.335ZM136.944 33.2045H144.197V31.9859H136.944V33.2045ZM143.588 32.5952V39.3218H144.806V32.5952H143.588ZM144.197 38.7125H136.944V39.9311H144.197V38.7125ZM150.613 27.3894L150.182 27.8202L150.191 27.8292L150.201 27.8378L150.613 27.3894ZM150.613 20.5458L151.035 20.9857L151.035 20.9853L150.613 20.5458ZM157.808 20.5458L157.377 20.9766L157.386 20.9856L157.395 20.9942L157.808 20.5458ZM157.808 27.3894L158.229 27.8293L158.23 27.8289L157.808 27.3894ZM158.276 32.5952H158.885V31.9859H158.276V32.5952ZM158.276 64.9999V65.6092H158.885V64.9999H158.276ZM150.087 64.9999H149.478V65.6092H150.087V64.9999ZM150.087 32.5952V31.9859H149.478V32.5952H150.087ZM154.24 28.1254C152.935 28.1254 151.878 27.7248 151.026 26.941L150.201 27.8378C151.299 28.8477 152.659 29.344 154.24 29.344V28.1254ZM151.044 26.9585C150.226 26.1409 149.819 25.1472 149.819 23.9383H148.6C148.6 25.4591 149.128 26.7661 150.182 27.8202L151.044 26.9585ZM149.819 23.9383C149.819 22.7298 150.226 21.761 151.035 20.9857L150.192 20.1059C149.129 21.1243 148.6 22.4173 148.6 23.9383H149.819ZM151.035 20.9853C151.889 20.1662 152.943 19.7513 154.24 19.7513V18.5327C152.651 18.5327 151.288 19.0536 150.191 20.1062L151.035 20.9853ZM154.24 19.7513C155.537 19.7513 156.566 20.1659 157.377 20.9766L158.239 20.1149C157.178 19.0539 155.828 18.5327 154.24 18.5327V19.7513ZM157.395 20.9942C158.241 21.7718 158.661 22.7381 158.661 23.9383H159.879C159.879 22.409 159.325 21.1135 158.22 20.0974L157.395 20.9942ZM158.661 23.9383C158.661 25.1391 158.24 26.1301 157.386 26.9498L158.23 27.8289C159.326 26.7769 159.879 25.4672 159.879 23.9383H158.661ZM157.386 26.9495C156.577 27.725 155.545 28.1254 154.24 28.1254V29.344C155.82 29.344 157.167 28.8475 158.229 27.8293L157.386 26.9495ZM157.667 32.5952V64.9999H158.885V32.5952H157.667ZM158.276 64.3906H150.087V65.6092H158.276V64.3906ZM150.696 64.9999V32.5952H149.478V64.9999H150.696ZM150.087 33.2045H158.276V31.9859H150.087V33.2045ZM166.191 39.9652L165.651 39.6828L165.648 39.6894L166.191 39.9652ZM171.514 34.116L171.199 33.5943L171.195 33.5968L171.514 34.116ZM185.376 33.5311L185.085 34.0664L185.09 34.069L185.376 33.5311ZM189.763 37.2161L189.273 37.5775L190.373 39.0701V37.2161H189.763ZM189.763 32.5952V31.9859H189.154V32.5952H189.763ZM198.011 32.5952H198.62V31.9859H198.011V32.5952ZM198.011 64.9999V65.6092H198.62V64.9999H198.011ZM189.763 64.9999H189.154V65.6092H189.763V64.9999ZM189.763 60.262H190.373V58.3115L189.262 59.9152L189.763 60.262ZM185.376 64.064L185.663 64.6019L185.667 64.5998L185.376 64.064ZM171.514 63.4206L171.188 63.9358L171.192 63.9383L171.514 63.4206ZM166.191 57.5129L165.646 57.7854L165.651 57.7953L166.191 57.5129ZM188.594 43.7087L188.057 43.9985L188.061 44.0046L188.594 43.7087ZM185.435 40.4331L185.126 40.9584L185.138 40.965L185.435 40.4331ZM176.954 40.3746L176.65 39.8466L176.954 40.3746ZM173.795 43.6502L173.265 43.3495L173.262 43.3543L173.795 43.6502ZM173.795 53.8279L173.256 54.1116L173.26 54.1202L173.265 54.1286L173.795 53.8279ZM176.954 57.1619L176.638 57.683L176.645 57.6871L176.954 57.1619ZM185.435 57.2204L185.732 57.7524L185.744 57.7456L185.435 57.2204ZM188.594 53.9448L189.126 54.2408L189.13 54.2346L188.594 53.9448ZM164.87 48.6805C164.87 45.4862 165.497 42.6781 166.734 40.241L165.648 39.6894C164.311 42.3217 163.651 45.3238 163.651 48.6805H164.87ZM166.731 40.2476C168.011 37.8007 169.713 35.937 171.833 34.6352L171.195 33.5968C168.87 35.0246 167.023 37.0604 165.651 39.6828L166.731 40.2476ZM171.829 34.6377C173.991 33.333 176.396 32.678 179.059 32.678V31.4595C176.185 31.4595 173.56 32.1694 171.199 33.5943L171.829 34.6377ZM179.059 32.678C181.394 32.678 183.396 33.1483 185.086 34.0664L185.667 32.9957C183.769 31.9641 181.56 31.4595 179.059 31.4595V32.678ZM185.09 34.069C186.853 35.0066 188.242 36.178 189.273 37.5775L190.254 36.8546C189.101 35.2906 187.565 34.0053 185.663 32.9931L185.09 34.069ZM190.373 37.2161V32.5952H189.154V37.2161H190.373ZM189.763 33.2045H198.011V31.9859H189.763V33.2045ZM197.401 32.5952V64.9999H198.62V32.5952H197.401ZM198.011 64.3906H189.763V65.6092H198.011V64.3906ZM190.373 64.9999V60.262H189.154V64.9999H190.373ZM189.262 59.9152C188.272 61.3462 186.887 62.5531 185.086 63.5283L185.667 64.5998C187.61 63.5472 189.149 62.2194 190.264 60.6088L189.262 59.9152ZM185.09 63.5261C183.359 64.4469 181.335 64.917 179.001 64.917V66.1356C181.502 66.1356 183.728 65.6308 185.663 64.6019L185.09 63.5261ZM179.001 64.917C176.382 64.917 173.998 64.2453 171.835 62.9029L171.192 63.9383C173.553 65.4035 176.161 66.1356 179.001 66.1356V64.917ZM171.839 62.9054C169.715 61.5639 168.011 59.6786 166.731 57.2305L165.651 57.7953C167.022 60.4164 168.867 62.4696 171.188 63.9357L171.839 62.9054ZM166.736 57.2404C165.497 54.7633 164.87 51.9149 164.87 48.6805H163.651C163.651 52.0753 164.311 55.1151 165.646 57.7854L166.736 57.2404ZM190.373 48.7975C190.373 46.7296 189.967 44.9263 189.126 43.4128L188.061 44.0046C188.78 45.2987 189.154 46.888 189.154 48.7975H190.373ZM189.13 43.419C188.299 41.8829 187.167 40.7031 185.732 39.9013L185.138 40.965C186.354 41.645 187.328 42.6489 188.058 43.9984L189.13 43.419ZM185.744 39.908C184.326 39.0737 182.796 38.654 181.165 38.654V39.8726C182.576 39.8726 183.893 40.2328 185.126 40.9583L185.744 39.908ZM181.165 38.654C179.54 38.654 178.031 39.0511 176.65 39.8466L177.258 40.9027C178.45 40.2164 179.748 39.8726 181.165 39.8726V38.654ZM176.65 39.8466C175.258 40.6479 174.131 41.8235 173.265 43.3495L174.325 43.951C175.097 42.5914 176.076 41.5832 177.258 40.9027L176.65 39.8466ZM173.262 43.3543C172.422 44.8661 172.016 46.6493 172.016 48.6805H173.234C173.234 46.8123 173.608 45.2419 174.328 43.9461L173.262 43.3543ZM172.016 48.6805C172.016 50.7129 172.423 52.529 173.256 54.1116L174.334 53.5441C173.607 52.1632 173.234 50.5477 173.234 48.6805H172.016ZM173.265 54.1286C174.13 55.6524 175.253 56.8438 176.638 57.683L177.269 56.6409C176.08 55.9203 175.098 54.8889 174.325 53.5271L173.265 54.1286ZM176.645 57.6871C178.06 58.5199 179.57 58.9411 181.165 58.9411V57.7225C179.796 57.7225 178.498 57.3638 177.262 56.6367L176.645 57.6871ZM181.165 58.9411C182.79 58.9411 184.315 58.544 185.732 57.7523L185.138 56.6885C183.903 57.3786 182.582 57.7225 181.165 57.7225V58.9411ZM185.744 57.7456C187.168 56.9081 188.296 55.7352 189.126 54.2407L188.061 53.6489C187.331 54.9621 186.354 55.9729 185.126 56.6952L185.744 57.7456ZM189.13 54.2346C189.967 52.6857 190.373 50.8661 190.373 48.7975H189.154C189.154 50.7064 188.78 52.3184 188.058 53.6551L189.13 54.2346Z" fill="#FF3263" mask="url(#path-1-outside-1_3597_5301)"/>
<path d="M15.2984 65.5852V34.5549H5.13253L3 28.1137C9.70255 31.5146 10.7056 30.9212 15.2984 29.3251C9.62813 8.69626 11.3984 2.61186 15.2984 3.52455C19.1984 4.43725 21.3444 3.52455 21.3444 3.52455C18.4051 12.9231 19.168 18.748 21.3444 29.3251H39.4827C42.7734 18.8804 42.8949 13.2164 39.4827 3.52455C39.4827 3.52455 41.1385 4.43719 45.5287 3.52455C49.9189 2.61192 49.2821 18.8796 45.5287 29.3251C47.3053 31.7974 49.611 31.1601 51.1342 31.1601L58.4458 28.1137L56.0086 34.5549H45.5287V65.5852H39.4827V34.5549H21.3444V65.5852H15.2984Z" fill="#FF3263" stroke="#FF3263" stroke-width="2.43718"/>
</svg>
